<svg width="21" height="22" viewBox="0 0 21 22" fill="none" xmlns="http://www.w3.org/2000/svg">
<path d="M10.2984 11.9554C10.7701 11.9554 11.1524 11.573 11.1524 11.1014C11.1524 10.6297 10.7701 10.2473 10.2984 10.2473C9.82671 10.2473 9.44434 10.6297 9.44434 11.1014C9.44434 11.573 9.82671 11.9554 10.2984 11.9554Z" stroke="#828282" stroke-width="1.70809" stroke-linecap="round" stroke-linejoin="round"/>
<path d="M16.2759 11.9554C16.7476 11.9554 17.13 11.573 17.13 11.1014C17.13 10.6297 16.7476 10.2473 16.2759 10.2473C15.8042 10.2473 15.4219 10.6297 15.4219 11.1014C15.4219 11.573 15.8042 11.9554 16.2759 11.9554Z" stroke="#828282" stroke-width="1.70809" stroke-linecap="round" stroke-linejoin="round"/>
<path d="M4.31889 11.9554C4.79057 11.9554 5.17294 11.573 5.17294 11.1014C5.17294 10.6297 4.79057 10.2473 4.31889 10.2473C3.84721 10.2473 3.46484 10.6297 3.46484 11.1014C3.46484 11.573 3.84721 11.9554 4.31889 11.9554Z" stroke="#828282" stroke-width="1.70809" stroke-linecap="round" stroke-linejoin="round"/>
</svg>
