<svg width="49" height="23" viewBox="0 0 49 23" fill="none" xmlns="http://www.w3.org/2000/svg">
<path d="M47.9625 15.8899L48.0718 15.357C48.3284 13.8607 48.2061 12.3239 47.7162 10.887C47.2263 9.45006 46.3843 8.15871 45.2671 7.1308C40.7201 2.96305 33.7101 0.933838 24.2815 0.933838C14.8699 0.933838 7.86667 2.95622 3.32315 7.1103C2.12991 8.20436 1.25035 9.59711 0.77532 11.1447C0.300285 12.6923 0.246991 14.3387 0.620942 15.9138L1.08896 17.885C1.45115 19.4415 2.36751 20.8131 3.66692 21.7435C4.96633 22.6738 6.55995 23.0995 8.15022 22.9409L12.3248 22.5139C13.6952 22.3691 14.9857 21.7986 16.0151 20.8826C17.0445 19.9665 17.761 18.751 18.064 17.4067L19.041 13.1365L19.0752 13.0408L19.2938 12.9247C19.4441 12.8495 19.6764 12.747 20.0112 12.6445C20.9678 12.3507 22.4025 12.1902 24.2815 12.1902C26.8265 12.1902 28.5312 12.4874 29.2998 12.9622C29.4365 13.0442 29.5321 13.1809 29.5697 13.338L30.4989 17.4033C30.8023 18.7485 31.5198 19.9648 32.5505 20.881C33.5813 21.7972 34.8734 22.367 36.2449 22.5105L40.44 22.9409C42.034 23.0986 43.6308 22.6698 44.9313 21.7346C46.2318 20.7995 47.1467 19.4223 47.5047 17.861L47.9625 15.8899ZM24.2815 4.555C32.8971 4.555 39.0735 6.34166 42.8518 9.80909C44.1944 11.0389 44.8264 12.8632 44.5497 14.6532L44.4711 15.0666L44.0133 17.0343C43.8514 17.7447 43.4358 18.3715 42.8446 18.7973C42.2534 19.2231 41.5272 19.4186 40.8021 19.3471L36.6071 18.9166C35.9837 18.8511 35.3966 18.5917 34.9284 18.175C34.4602 17.7583 34.1345 17.2052 33.9971 16.5936L33.0645 12.5284C32.94 11.9829 32.7083 11.4675 32.3828 11.0124C32.0573 10.5573 31.6445 10.1715 31.1685 9.87741C29.6995 8.97213 27.4346 8.57926 24.2815 8.57926C19.4851 8.57926 16.5814 9.47089 15.6829 11.8793L15.5804 12.2073L14.5692 16.5971C14.4319 17.2086 14.1062 17.7617 13.638 18.1784C13.1697 18.5951 12.5826 18.8545 11.9593 18.9201L7.7881 19.3471C7.06494 19.4191 6.34028 19.2255 5.74938 18.8025C5.15848 18.3794 4.74172 17.7558 4.57689 17.048L4.10887 15.0769C3.88472 14.1318 3.91694 13.144 4.2022 12.2155C4.48747 11.2871 5.01543 10.4516 5.73156 9.79543C9.51328 6.33141 15.6795 4.55158 24.2815 4.55158V4.555Z" fill="white"/>
</svg>
